<?xml version="1.0" encoding="UTF-8"?>
<svg width="42" height="61" fill="none" version="1.1" viewBox="0 0 42 61" xmlns="http://www.w3.org/2000/svg" xmlns:cc="http://creativecommons.org/ns#" xmlns:dc="http://purl.org/dc/elements/1.1/" xmlns:rdf="http://www.w3.org/1999/02/22-rdf-syntax-ns#">
 <metadata>
  <rdf:RDF>
   <cc:Work rdf:about="">
    <dc:format>image/svg+xml</dc:format>
    <dc:type rdf:resource="http://purl.org/dc/dcmitype/StillImage"/>
    <dc:title/>
   </cc:Work>
  </rdf:RDF>
 </metadata>
 <g clip-rule="evenodd" fill="#545454" fill-rule="evenodd">
  <path d="m11.555 56.862c0-2.2368 1.4117-4.05 3.153-4.05h12.612c1.7414 0 3.153 1.8132 3.153 4.05 0 2.2367-1.4116 4.05-3.153 4.05h-12.612c-1.7413 0-3.153-1.8133-3.153-4.05z"/>
  <path d="m3.857 16.362c1.895 0 3.4312 1.7459 3.4312 3.8995v5.8298c0 3.4138 1.5521 6.7591 4.212 9.3549 2.6663 2.6019 6.1773 4.1667 9.513 4.1667s6.8467-1.5648 9.5129-4.1667c2.66-2.5958 4.2121-5.9411 4.2121-9.3549v-5.8298c0-2.1536 1.5362-3.8995 3.4312-3.8995 1.8951 0 3.4313 1.7459 3.4313 3.8995v5.8298c0 6.1937-2.7992 11.559-6.6039 15.272-3.7985 3.7068-8.8656 6.0488-13.984 6.0488-5.1181 0-10.185-2.342-13.984-6.0488-3.8047-3.7129-6.6039-9.0781-6.6039-15.272v-5.8298c0-2.1536 1.5362-3.8995 3.4312-3.8995z"/>
  <path d="m21.013 39.312c1.5365 0 2.7821 1.9341 2.7821 4.32v12.96c0 2.3859-1.2456 4.32-2.7821 4.32s-2.7821-1.9341-2.7821-4.32v-12.96c0-2.3859 1.2456-4.32 2.7821-4.32z"/>
 </g>
 <path d="m30 10.2c0-5.6333-4.0294-10.2-9-10.2s-9 4.5667-9 10.2v13.6c0 5.6333 4.0294 10.2 9 10.2s9-4.5667 9-10.2v-13.6z" fill="#545454"/>
</svg>
