<?xml version="1.0" encoding="UTF-8" standalone="no"?>
<svg
   xmlns:dc="http://purl.org/dc/elements/1.1/"
   xmlns:cc="http://creativecommons.org/ns#"
   xmlns:rdf="http://www.w3.org/1999/02/22-rdf-syntax-ns#"
   xmlns:svg="http://www.w3.org/2000/svg"
   xmlns="http://www.w3.org/2000/svg"
   xmlns:sodipodi="http://sodipodi.sourceforge.net/DTD/sodipodi-0.dtd"
   xmlns:inkscape="http://www.inkscape.org/namespaces/inkscape"
   width="70"
   height="64"
   viewBox="0 0 70 64"
   fill="none"
   version="1.1"
   id="svg4"
   sodipodi:docname="red-headphones-with-x.svg"
   inkscape:version="0.92.4 (5da689c313, 2019-01-14)">
  <metadata
     id="metadata10">
    <rdf:RDF>
      <cc:Work
         rdf:about="">
        <dc:format>image/svg+xml</dc:format>
        <dc:type
           rdf:resource="http://purl.org/dc/dcmitype/StillImage" />
        <dc:title></dc:title>
      </cc:Work>
    </rdf:RDF>
  </metadata>
  <defs
     id="defs8" />
  <sodipodi:namedview
     pagecolor="#ffffff"
     bordercolor="#666666"
     borderopacity="1"
     objecttolerance="10"
     gridtolerance="10"
     guidetolerance="10"
     inkscape:pageopacity="0"
     inkscape:pageshadow="2"
     inkscape:window-width="2560"
     inkscape:window-height="1377"
     id="namedview6"
     showgrid="false"
     inkscape:zoom="3.6875"
     inkscape:cx="35"
     inkscape:cy="32"
     inkscape:window-x="1432"
     inkscape:window-y="528"
     inkscape:window-maximized="1"
     inkscape:current-layer="svg4" />
  <path
     d="M35 0C15.5556 0 0 13.4737 0 30.3158V53.8947C0 56.5748 1.22916 59.1451 3.41709 61.0402C5.60501 62.9353 8.57247 64 11.6667 64H18.9583V37.0526H7.77778V30.3158C7.77778 24.0623 10.6458 18.0649 15.751 13.643C20.8561 9.22104 27.7802 6.73684 35 6.73684C42.2198 6.73684 49.1439 9.22104 54.249 13.643C59.3542 18.0649 62.2222 24.0623 62.2222 30.3158V37.0526H50.3125V64H58.3333C61.4275 64 64.395 62.9353 66.5829 61.0402C68.7708 59.1451 70 56.5748 70 53.8947V30.3158C70 13.4737 54.3278 0 35 0Z"
     fill="white"
     id="path2"
     style="fill:#ff0000;fill-opacity:1" />
  <g
     aria-label="X"
     style="font-style:normal;font-variant:normal;font-weight:normal;font-stretch:normal;font-size:18.66666603px;line-height:1.25;font-family:'Berlin Sans FB';-inkscape-font-specification:'Berlin Sans FB';letter-spacing:0px;word-spacing:0px;fill:#000000;fill-opacity:1;stroke:none"
     id="flowRoot817">
    <path
       sodipodi:type="inkscape:offset"
       inkscape:radius="0"
       inkscape:original="M 30.060547 41.779297 C 29.896484 41.779297 29.814453 41.82118 29.814453 41.90625 L 29.814453 43.310547 C 29.814453 43.401693 30.383247 44.212891 31.519531 45.744141 C 32.655816 47.275391 33.222656 48.106554 33.222656 48.240234 C 33.222656 48.361762 32.652127 49.182075 31.509766 50.701172 C 30.367405 52.214193 29.796875 53.02908 29.796875 53.144531 L 29.796875 54.457031 C 29.796875 54.554254 29.866103 54.603516 30.005859 54.603516 L 31.519531 54.603516 C 31.610677 54.603516 32.121094 53.883463 33.050781 52.443359 C 34.016927 50.96072 34.554687 50.178602 34.664062 50.099609 C 34.694445 50.105685 35.184679 50.851345 36.138672 52.333984 C 37.098742 53.816625 37.625652 54.573136 37.716797 54.603516 C 37.722874 54.609582 37.763021 54.611328 37.835938 54.611328 L 39.302734 54.603516 C 39.436415 54.603516 39.503906 54.567057 39.503906 54.494141 L 39.503906 53.181641 C 39.503906 53.072265 38.931424 52.242838 37.789062 50.693359 C 36.652778 49.137803 36.085938 48.310113 36.085938 48.212891 C 36.085938 48.133897 36.649089 47.340928 37.779297 45.833984 C 38.915582 44.32704 39.484375 43.497612 39.484375 43.345703 L 39.484375 41.943359 C 39.484375 41.85829 39.406033 41.814453 39.248047 41.814453 L 37.806641 41.814453 C 37.721571 41.814453 37.20204 42.561849 36.248047 44.056641 C 35.281902 45.575739 34.756944 46.357857 34.671875 46.400391 C 34.598956 46.351778 34.547958 46.306205 34.517578 46.263672 C 33.363064 44.477214 32.500868 43.13368 31.929688 42.234375 C 31.735241 41.954861 31.622177 41.814453 31.591797 41.814453 C 31.421658 41.814453 31.16645 41.809028 30.826172 41.796875 C 30.485895 41.784722 30.230686 41.779297 30.060547 41.779297 z "
       style="font-size:18.66666603px;text-align:center;text-anchor:middle;fill:#ff0000;fill-opacity:1"
       id="path825"
       d="m 30.060547,41.779297 c -0.164063,0 -0.246094,0.04188 -0.246094,0.126953 v 1.404297 c 0,0.09115 0.568794,0.902344 1.705078,2.433594 1.136285,1.53125 1.703125,2.362413 1.703125,2.496093 0,0.121528 -0.570529,0.941841 -1.71289,2.460938 -1.142361,1.513021 -1.712891,2.327908 -1.712891,2.443359 v 1.3125 c 0,0.09722 0.06923,0.146485 0.208984,0.146485 h 1.513672 c 0.09115,0 0.601563,-0.720053 1.53125,-2.160157 0.966146,-1.482639 1.503906,-2.264757 1.613281,-2.34375 0.03038,0.0061 0.520617,0.751736 1.47461,2.234375 0.96007,1.482641 1.48698,2.239152 1.578125,2.269532 0.0061,0.0061 0.04622,0.0078 0.119141,0.0078 l 1.466796,-0.0078 c 0.133681,0 0.201172,-0.03646 0.201172,-0.109375 v -1.3125 c 0,-0.109376 -0.572482,-0.938803 -1.714844,-2.488282 -1.136284,-1.555556 -1.703124,-2.383246 -1.703124,-2.480468 0,-0.07899 0.563151,-0.871963 1.693359,-2.378907 1.136285,-1.506944 1.705078,-2.336372 1.705078,-2.488281 v -1.402344 c 0,-0.08507 -0.07834,-0.128906 -0.236328,-0.128906 h -1.441406 c -0.08507,0 -0.604601,0.747396 -1.558594,2.242188 -0.966145,1.519098 -1.491103,2.301216 -1.576172,2.34375 -0.07292,-0.04861 -0.123917,-0.09419 -0.154297,-0.136719 -1.154514,-1.786458 -2.01671,-3.129992 -2.58789,-4.029297 -0.194447,-0.279514 -0.307511,-0.419922 -0.337891,-0.419922 -0.170139,0 -0.425347,-0.0054 -0.765625,-0.01758 -0.340277,-0.01215 -0.595486,-0.01758 -0.765625,-0.01758 z" />
  </g>
</svg>
