<?xml version="1.0" encoding="UTF-8"?>
<svg width="43" height="67.457" fill="none" version="1.1" viewBox="0 0 43 67.457" xmlns="http://www.w3.org/2000/svg" xmlns:cc="http://creativecommons.org/ns#" xmlns:dc="http://purl.org/dc/elements/1.1/" xmlns:rdf="http://www.w3.org/1999/02/22-rdf-syntax-ns#">
 <metadata>
  <rdf:RDF>
   <cc:Work rdf:about="">
    <dc:format>image/svg+xml</dc:format>
    <dc:type rdf:resource="http://purl.org/dc/dcmitype/StillImage"/>
    <dc:title/>
   </cc:Work>
  </rdf:RDF>
 </metadata>
 <g fill="#f83737">
  <path d="m3.5833 26.408c1.979 0 3.5833 1.6735 3.5833 3.7379v5.5882c0 3.2724 1.6209 6.479 4.3987 8.9673 2.7844 2.4941 6.4511 3.9941 9.9346 3.9941s7.1502-1.5 9.9346-3.9941c2.7779-2.4883 4.3987-5.6949 4.3987-8.9673v-5.5882c0-2.0644 1.6043-3.7379 3.5834-3.7379 1.979 0 3.5833 1.6735 3.5833 3.7379v5.5882c0 5.9371-2.9232 11.08-6.8966 14.639-3.0746 2.754-6.9452 4.7221-11.02 5.4681v4.1392h3.5834c1.979 0 3.5833 1.6735 3.5833 3.7379s-1.6043 3.738-3.5833 3.738h-7.0985c-0.0227 4e-4 -0.0454 6e-4 -0.0682 6e-4s-0.0455-2e-4 -0.0682-6e-4h-7.0985c-1.979 0-3.5833-1.6736-3.5833-3.738s1.6043-3.7379 3.5833-3.7379h3.5834v-4.139c-4.0748-0.7458-7.9457-2.714-11.021-5.4683-3.9734-3.5591-6.8966-8.702-6.8966-14.639v-5.5882c0-2.0644 1.6043-3.7379 3.5833-3.7379z" clip-rule="evenodd" fill-rule="evenodd"/>
  <path d="m32.25 26.196s-4.8129-4e-4 -10.75-4e-4 -10.75 0.1286-10.75 0.1286v7.4887c0 6.1933 4.8129 11.214 10.75 11.214s10.75-5.0206 10.75-11.214z"/>
  <path d="m11.604 16.103c-1.3579 1.4166-1.3579 3.7132 0 5.1298 1.358 1.4165 3.5596 1.4165 4.9176 0l4.5722-4.7696 4.5738 4.7711c1.358 1.4166 3.5597 1.4166 4.9176 0 1.358-1.4165 1.358-3.7132 0-5.1297l-4.5738-4.7711 4.9291-5.1418c1.3579-1.4165 1.3579-3.7132 0-5.1297-1.358-1.4165-3.5596-1.4165-4.9176 0l-4.9291 5.1418-4.9275-5.1402c-1.358-1.4165-3.5596-1.4165-4.9176 0-1.3579 1.4165-1.3579 3.7132 0 5.1298l4.9276 5.1402z" clip-rule="evenodd" fill-rule="evenodd"/>
 </g>
</svg>
