<svg width="70" height="64" viewBox="0 0 70 64" fill="none" xmlns="http://www.w3.org/2000/svg">
<path d="M35 0C15.5556 0 0 13.4737 0 30.3158V53.8947C0 56.5748 1.22916 59.1451 3.41709 61.0402C5.60501 62.9353 8.57247 64 11.6667 64H18.9583V37.0526H7.77778V30.3158C7.77778 24.0623 10.6458 18.0649 15.751 13.643C20.8561 9.22104 27.7802 6.73684 35 6.73684C42.2198 6.73684 49.1439 9.22104 54.249 13.643C59.3542 18.0649 62.2222 24.0623 62.2222 30.3158V37.0526H50.3125V64H58.3333C61.4275 64 64.395 62.9353 66.5829 61.0402C68.7708 59.1451 70 56.5748 70 53.8947V30.3158C70 13.4737 54.3278 0 35 0Z" fill="white"/>
</svg>
