<svg width="42" height="61" viewBox="0 0 42 61" fill="none" xmlns="http://www.w3.org/2000/svg">
<path fill-rule="evenodd" clip-rule="evenodd" d="M11.5547 56.8625C11.5547 54.6257 12.9664 52.8125 14.7077 52.8125H27.3199C29.0613 52.8125 30.4729 54.6257 30.4729 56.8625C30.4729 59.0992 29.0613 60.9125 27.3199 60.9125H14.7077C12.9664 60.9125 11.5547 59.0992 11.5547 56.8625Z" fill="white"/>
<path fill-rule="evenodd" clip-rule="evenodd" d="M3.85703 16.3623C5.75206 16.3623 7.28828 18.1082 7.28828 20.2618V26.0916C7.28828 29.5054 8.84036 32.8507 11.5003 35.4465C14.1666 38.0484 17.6776 39.6132 21.0133 39.6132C24.349 39.6132 27.86 38.0484 30.5262 35.4465C33.1862 32.8507 34.7383 29.5054 34.7383 26.0916V20.2618C34.7383 18.1082 36.2745 16.3623 38.1695 16.3623C40.0646 16.3623 41.6008 18.1082 41.6008 20.2618V26.0916C41.6008 32.2853 38.8016 37.6505 34.9969 41.3634C31.1984 45.0702 26.1313 47.4122 21.0133 47.4122C15.8952 47.4122 10.8281 45.0702 7.02966 41.3634C3.22495 37.6505 0.425781 32.2853 0.425781 26.0916V20.2618C0.425781 18.1082 1.962 16.3623 3.85703 16.3623Z" fill="white"/>
<path fill-rule="evenodd" clip-rule="evenodd" d="M21.0126 39.3125C22.5491 39.3125 23.7947 41.2466 23.7947 43.6325V56.5924C23.7947 58.9783 22.5491 60.9124 21.0126 60.9124C19.4761 60.9124 18.2305 58.9783 18.2305 56.5924V43.6325C18.2305 41.2466 19.4761 39.3125 21.0126 39.3125Z" fill="white"/>
<path d="M30 10.2C30 4.5667 25.9706 0 21 0C16.0294 0 12 4.5667 12 10.2V23.8C12 29.4333 16.0294 34 21 34C25.9706 34 30 29.4333 30 23.8V10.2Z" fill="white"/>
</svg>
